<?xml version="1.0"?>
<svg xmlns="http://www.w3.org/2000/svg" id="icons" enable-background="new 0 0 64 64" height="512px" viewBox="0 0 64 64" width="512px"><path d="m61 3.998h-58c-1.654 0-3 1.346-3 3v52.004c0 .553.447 1 1 1h62c.553 0 1-.447 1-1v-52.004c0-1.654-1.346-3-3-3zm-59 6h60v48.004h-60zm1-4h1.018c-.551.002-.993.448-.993 1s.452 1 1.005 1c.552 0 1-.448 1-1 0-.551-.447-.998-.997-1h2.983c-.55.002-.992.448-.992 1s.452 1 1.005 1c.552 0 1-.448 1-1 0-.551-.447-.998-.998-1h2.988c-.55.002-.992.448-.992 1s.452 1 1.005 1c.552 0 1-.448 1-1 0-.551-.447-.998-.997-1h50.965c.552 0 1 .449 1 1v1h-60v-1c0-.551.448-1 1-1z" fill="#596995"/><path d="m59 54h-52.999v-41c0-.552-.447-1-1-1s-1 .448-1 1v42c0 .553.447 1 1 1h53.999c.553 0 1-.447 1-1s-.447-1-1-1z" fill="#596995"/><path d="m9.001 51.997c.484 0 .889-.345.98-.802.061-.265 1.184-4.94 4.79-9.462.376.17.79.27 1.229.27 1.654 0 3-1.347 3-3.001 0-.42-.088-.818-.244-1.182 3.482-2.681 7.67-4.252 12.474-4.682.45 1.089 1.521 1.858 2.771 1.858 1.352 0 2.483-.904 2.857-2.135 5.314-.449 9.945-2.197 13.788-5.206.408.209.864.338 1.354.338 1.654 0 3-1.346 3-3.001 0-.472-.119-.912-.313-1.31 4.021-4.977 5.314-10.317 5.314-10.686 0-.552-.447-1-1-1-.485 0-.89.345-.98.804-.062.27-1.174 4.958-4.766 9.475-.383-.178-.806-.284-1.255-.284-1.654 0-3 1.346-3 3.001 0 .431.095.838.259 1.209-3.481 2.675-7.673 4.24-12.483 4.661-.448-1.093-1.521-1.866-2.774-1.866-1.354 0-2.488.907-2.86 2.142-5.298.458-9.918 2.209-13.758 5.215-.416-.218-.882-.354-1.383-.354-1.654 0-3 1.347-3 3.001 0 .482.125.933.329 1.337-4.03 4.981-5.328 10.293-5.328 10.658-.001.555.446 1.002.999 1.002zm42.999-28.005c.552 0 1 .449 1 1.001s-.448 1.001-1 1.001-1-.449-1-1.001.448-1.001 1-1.001zm-17.999 7.005c.552 0 1 .449 1 1s-.448 1-1 1-1-.449-1-1 .448-1 1-1zm-18.001 7.004c.552 0 1 .449 1 1.001s-.448 1.001-1 1.001-1-.449-1-1.001.448-1.001 1-1.001z" fill="#596995"/><path d="m45.024 46h-.011c-.552 0-.994.447-.994 1s.452 1 1.005 1c.552 0 1-.447 1-1s-.448-1-1-1z" fill="#596995"/><path d="m58.994 46h-11c-.553 0-1 .447-1 1s.447 1 1 1h11c.553 0 1-.447 1-1s-.447-1-1-1z" fill="#596995"/><path d="m45.024 41.998h-.011c-.552 0-.994.447-.994 1s.452 1 1.005 1c.552 0 1-.447 1-1s-.448-1-1-1z" fill="#596995"/><path d="m58.994 41.998h-11c-.553 0-1 .447-1 1s.447 1 1 1h11c.553 0 1-.447 1-1s-.447-1-1-1z" fill="#596995"/><path d="m45.024 50h-.011c-.552 0-.994.447-.994 1s.452 1 1.005 1c.552 0 1-.447 1-1s-.448-1-1-1z" fill="#596995"/><path d="m58.994 50h-11c-.553 0-1 .447-1 1s.447 1 1 1h11c.553 0 1-.447 1-1s-.447-1-1-1z" fill="#596995"/><path d="m25.003 25.998h6.76l1.79.895c.141.07.294.105.447.105s.307-.035.447-.105l1.79-.895h6.762c.553 0 1-.448 1-1v-8c0-.552-.447-1-1-1h-17.996c-.553 0-1 .448-1 1v8c0 .552.447 1 1 1zm1-8h15.996v6h-5.998c-.155 0-.309.036-.447.105l-1.554.777-1.554-.776c-.139-.069-.292-.105-.447-.105h-5.996z" fill="#596995"/><path d="m40 20.998c0-.552-.447-1-1-1h-10c-.553 0-1 .448-1 1s.447 1 1 1h10c.553 0 1-.448 1-1z" fill="#596995"/></svg>
